<svg width="18" height="18" viewBox="0 0 18 18" fill="none" xmlns="http://www.w3.org/2000/svg">
<path d="M16.32 11.94L11.52 3.3C10.875 2.1375 9.9825 1.5 9 1.5C8.0175 1.5 7.125 2.1375 6.48 3.3L1.68 11.94C1.0725 13.0425 1.005 14.1 1.4925 14.9325C1.98 15.765 2.94 16.2225 4.2 16.2225H13.8C15.06 16.2225 16.02 15.765 16.5075 14.9325C16.995 14.1 16.9275 13.035 16.32 11.94ZM8.4375 6.75C8.4375 6.4425 8.6925 6.1875 9 6.1875C9.3075 6.1875 9.5625 6.4425 9.5625 6.75V10.5C9.5625 10.8075 9.3075 11.0625 9 11.0625C8.6925 11.0625 8.4375 10.8075 8.4375 10.5V6.75ZM9.5325 13.2825C9.495 13.3125 9.4575 13.3425 9.42 13.3725C9.375 13.4025 9.33 13.425 9.285 13.44C9.24 13.4625 9.195 13.4775 9.1425 13.485C9.0975 13.4925 9.045 13.5 9 13.5C8.955 13.5 8.9025 13.4925 8.85 13.485C8.805 13.4775 8.76 13.4625 8.715 13.44C8.67 13.425 8.625 13.4025 8.58 13.3725C8.5425 13.3425 8.505 13.3125 8.4675 13.2825C8.3325 13.14 8.25 12.945 8.25 12.75C8.25 12.555 8.3325 12.36 8.4675 12.2175C8.505 12.1875 8.5425 12.1575 8.58 12.1275C8.625 12.0975 8.67 12.075 8.715 12.06C8.76 12.0375 8.805 12.0225 8.85 12.015C8.9475 11.9925 9.0525 11.9925 9.1425 12.015C9.195 12.0225 9.24 12.0375 9.285 12.06C9.33 12.075 9.375 12.0975 9.42 12.1275C9.4575 12.1575 9.495 12.1875 9.5325 12.2175C9.6675 12.36 9.75 12.555 9.75 12.75C9.75 12.945 9.6675 13.14 9.5325 13.2825Z" fill="#DB371F"/>
</svg>
