<svg width="43" height="44" viewBox="0 0 43 44" fill="none" xmlns="http://www.w3.org/2000/svg">
<path d="M25.5317 5.875V15.2812H34.938" stroke="white" stroke-width="2" stroke-linecap="round" stroke-linejoin="round"/>
<path d="M24.8599 22L28.8911 26.0312L24.8599 30.0625" stroke="white" stroke-width="2" stroke-linecap="round" stroke-linejoin="round"/>
<path d="M18.1411 22L14.1099 26.0312L18.1411 30.0625" stroke="white" stroke-width="2" stroke-linecap="round" stroke-linejoin="round"/>
<path d="M33.5942 38.125C33.9506 38.125 34.2924 37.9834 34.5444 37.7314C34.7964 37.4794 34.938 37.1376 34.938 36.7812V15.2812L25.5317 5.875H9.40674C9.05035 5.875 8.70857 6.01657 8.45656 6.26858C8.20456 6.52058 8.06299 6.86237 8.06299 7.21875V36.7812C8.06299 37.1376 8.20456 37.4794 8.45656 37.7314C8.70857 37.9834 9.05035 38.125 9.40674 38.125H33.5942Z" stroke="white" stroke-width="2" stroke-linecap="round" stroke-linejoin="round"/>
</svg>
