<svg width="54" height="54" viewBox="0 0 54 54" fill="none" xmlns="http://www.w3.org/2000/svg">
<path d="M32.0315 6.875V18.6146H43.7711" stroke="white" stroke-width="3.08571" stroke-linecap="round" stroke-linejoin="round"/>
<path d="M31.1929 27L36.2241 32.0313L31.1929 37.0625" stroke="white" stroke-width="3.08571" stroke-linecap="round" stroke-linejoin="round"/>
<path d="M22.8076 27L17.7764 32.0313L22.8076 37.0625" stroke="white" stroke-width="3.08571" stroke-linecap="round" stroke-linejoin="round"/>
<path d="M42.0941 47.125C42.5389 47.125 42.9654 46.9483 43.28 46.6338C43.5945 46.3193 43.7712 45.8927 43.7712 45.4479V18.6146L32.0316 6.875H11.9066C11.4618 6.875 11.0352 7.05169 10.7207 7.36621C10.4062 7.68072 10.2295 8.10729 10.2295 8.55208V45.4479C10.2295 45.8927 10.4062 46.3193 10.7207 46.6338C11.0352 46.9483 11.4618 47.125 11.9066 47.125H42.0941Z" stroke="white" stroke-width="3.08571" stroke-linecap="round" stroke-linejoin="round"/>
</svg>
