<svg width="45" height="45" viewBox="0 0 45 45" fill="none" xmlns="http://www.w3.org/2000/svg">
<path d="M41.4336 21.4407L37.2124 23.5428L31.7437 13.0838L36.0161 10.9475C36.3336 10.7857 36.7023 10.756 37.0416 10.8648C37.381 10.9737 37.6635 11.2123 37.8276 11.5286L42.0317 19.5779C42.117 19.739 42.1692 19.9156 42.1852 20.0972C42.2012 20.2788 42.1807 20.4617 42.125 20.6353C42.0693 20.8089 41.9794 20.9695 41.8607 21.1078C41.7419 21.2462 41.5967 21.3593 41.4336 21.4407V21.4407Z" stroke="white" stroke-width="2" stroke-linecap="round" stroke-linejoin="round"/>
<path d="M7.13435 23.3714L2.91316 21.2523C2.75063 21.1726 2.60577 21.0611 2.48721 20.9244C2.36864 20.7876 2.27879 20.6284 2.22299 20.4562C2.16719 20.284 2.14658 20.1024 2.16239 19.922C2.1782 19.7417 2.2301 19.5664 2.31502 19.4066L6.51912 11.3573C6.68358 11.0412 6.96495 10.8018 7.30331 10.69C7.64168 10.5783 8.01029 10.6031 8.33064 10.7591L12.6031 12.8954L7.13435 23.3714Z" stroke="white" stroke-width="2" stroke-linecap="round" stroke-linejoin="round"/>
<path d="M37.2124 23.5425L34.478 26.7554L28.189 33.0444C28.0176 33.2047 27.8099 33.3211 27.5837 33.3836C27.3575 33.4461 27.1195 33.4529 26.8901 33.4033L16.978 30.9253C16.797 30.8748 16.6282 30.7876 16.4824 30.6689L7.13428 23.3716" stroke="white" stroke-width="2" stroke-linecap="round" stroke-linejoin="round"/>
<path d="M34.4784 26.7554L26.9588 21.2866L24.7713 22.9273C23.8236 23.6346 22.6727 24.0168 21.4901 24.0168C20.3075 24.0168 19.1566 23.6346 18.2088 22.9273L17.286 22.2266C17.1299 22.1079 17.0009 21.9575 16.9073 21.7852C16.8138 21.613 16.7579 21.4228 16.7433 21.2273C16.7288 21.0318 16.7559 20.8354 16.823 20.6512C16.89 20.467 16.9954 20.2991 17.1322 20.1587L23.8314 13.4766C23.9572 13.3513 24.1066 13.2522 24.2708 13.1847C24.435 13.1173 24.6109 13.0829 24.7884 13.0835H31.744" stroke="white" stroke-width="2" stroke-linecap="round" stroke-linejoin="round"/>
<path d="M12.7051 12.8953L21.4722 10.3318C21.7837 10.2424 22.1168 10.2667 22.4121 10.4001L28.3252 13.0832" stroke="white" stroke-width="2" stroke-linecap="round" stroke-linejoin="round"/>
<path d="M19.439 37.0093L14.2949 35.7104C14.0853 35.6631 13.8912 35.5631 13.731 35.4199L9.86865 32.0703" stroke="white" stroke-width="2" stroke-linecap="round" stroke-linejoin="round"/>
</svg>
