<svg width="15" height="20" viewBox="0 0 15 20" fill="none" xmlns="http://www.w3.org/2000/svg">
<path d="M7.5 0.757812C3.91146 0.757812 1 3.48562 1 6.84527C1 10.711 5.33333 16.8372 6.92448 18.9531C6.99053 19.0424 7.07709 19.1151 7.17711 19.1652C7.27713 19.2153 7.38777 19.2414 7.5 19.2414C7.61223 19.2414 7.72287 19.2153 7.82289 19.1652C7.92291 19.1151 8.00947 19.0424 8.07552 18.9531C9.66667 16.838 14 10.7141 14 6.84527C14 3.48562 11.0885 0.757812 7.5 0.757812Z" stroke="white" stroke-width="1.25565" stroke-linecap="round" stroke-linejoin="round"/>
<path d="M7.50015 10.5076C8.93609 10.5076 10.1001 9.34356 10.1001 7.90762C10.1001 6.47168 8.93609 5.30762 7.50015 5.30762C6.06421 5.30762 4.90015 6.47168 4.90015 7.90762C4.90015 9.34356 6.06421 10.5076 7.50015 10.5076Z" stroke="white" stroke-width="1.25565" stroke-linecap="round" stroke-linejoin="round"/>
</svg>
