<svg width="23" height="32" viewBox="0 0 23 32" fill="none" xmlns="http://www.w3.org/2000/svg">
<path d="M11.8176 1C6.29679 1 1.81763 5.42738 1.81763 10.8803C1.81763 17.1546 8.48429 27.0977 10.9322 30.532C11.0338 30.677 11.167 30.7949 11.3209 30.8763C11.4748 30.9576 11.645 31 11.8176 31C11.9903 31 12.1605 30.9576 12.3144 30.8763C12.4683 30.7949 12.6014 30.677 12.703 30.532C15.151 27.0991 21.8176 17.1597 21.8176 10.8803C21.8176 5.42738 17.3385 1 11.8176 1Z" stroke="#40DDB6" stroke-width="2" stroke-linecap="round" stroke-linejoin="round"/>
<path d="M11.8176 16C14.0268 16 15.8176 14.2091 15.8176 12C15.8176 9.79086 14.0268 8 11.8176 8C9.60849 8 7.81763 9.79086 7.81763 12C7.81763 14.2091 9.60849 16 11.8176 16Z" stroke="#40DDB6" stroke-width="2" stroke-linecap="round" stroke-linejoin="round"/>
</svg>
