<svg width="54" height="54" viewBox="0 0 54 54" fill="none" xmlns="http://www.w3.org/2000/svg">
<path d="M3.52075 45.4482H50.4791" stroke="white" stroke-width="3.08571" stroke-linecap="round" stroke-linejoin="round"/>
<path d="M30.3539 45.4479V8.55208C30.3539 8.10729 30.1772 7.68072 29.8627 7.36621C29.5482 7.05169 29.1216 6.875 28.6768 6.875H8.55184C8.10705 6.875 7.68048 7.05169 7.36596 7.36621C7.05145 7.68072 6.87476 8.10729 6.87476 8.55208V45.4479" stroke="white" stroke-width="3.08571" stroke-linecap="round" stroke-linejoin="round"/>
<path d="M47.1248 45.4473V21.9681C47.1248 21.5233 46.9481 21.0967 46.6336 20.7822C46.3191 20.4677 45.8925 20.291 45.4478 20.291H30.354" stroke="white" stroke-width="3.08571" stroke-linecap="round" stroke-linejoin="round"/>
<path d="M13.5835 15.2607H20.2918" stroke="white" stroke-width="3.08571" stroke-linecap="round" stroke-linejoin="round"/>
<path d="M16.9375 28.6768H23.6458" stroke="white" stroke-width="3.08571" stroke-linecap="round" stroke-linejoin="round"/>
<path d="M13.5835 37.0625H20.2918" stroke="white" stroke-width="3.08571" stroke-linecap="round" stroke-linejoin="round"/>
<path d="M37.0623 37.0625H40.4164" stroke="white" stroke-width="3.08571" stroke-linecap="round" stroke-linejoin="round"/>
<path d="M37.0623 28.6768H40.4164" stroke="white" stroke-width="3.08571" stroke-linecap="round" stroke-linejoin="round"/>
</svg>
