<svg width="18" height="18" viewBox="0 0 18 18" fill="none" xmlns="http://www.w3.org/2000/svg">
<path d="M12.2603 2.14359C13.2037 2.14631 14.1076 2.50838 14.7747 3.15074C15.4417 3.7931 15.8177 4.66354 15.8206 5.57197V12.428C15.8177 13.3364 15.4417 14.2069 14.7747 14.8492C14.1076 15.4916 13.2037 15.8537 12.2603 15.8564H5.1406C4.19723 15.8537 3.29331 15.4916 2.62624 14.8492C1.95918 14.2069 1.58318 13.3364 1.58036 12.428V5.57197C1.58318 4.66354 1.95918 3.7931 2.62624 3.15074C3.29331 2.50838 4.19723 2.14631 5.1406 2.14359H12.2603ZM12.2603 0.772461H5.1406C2.39928 0.772461 0.156494 2.93219 0.156494 5.57197V12.428C0.156494 15.0678 2.39928 17.2275 5.1406 17.2275H12.2603C15.0016 17.2275 17.2444 15.0678 17.2444 12.428V5.57197C17.2444 2.93219 15.0016 0.772461 12.2603 0.772461Z" fill="white"/>
<path d="M13.3283 5.57251C13.1171 5.57251 12.9106 5.51219 12.735 5.39918C12.5593 5.28618 12.4224 5.12556 12.3416 4.93763C12.2608 4.74971 12.2396 4.54293 12.2808 4.34343C12.322 4.14393 12.4238 3.96068 12.5731 3.81685C12.7225 3.67302 12.9128 3.57507 13.1199 3.53539C13.3271 3.4957 13.5419 3.51607 13.737 3.59391C13.9322 3.67175 14.099 3.80357 14.2163 3.9727C14.3337 4.14182 14.3963 4.34066 14.3963 4.54407C14.3966 4.6792 14.3692 4.81307 14.3156 4.93798C14.2621 5.06288 14.1834 5.17637 14.0842 5.27193C13.9849 5.36749 13.8671 5.44323 13.7374 5.49481C13.6077 5.54639 13.4686 5.5728 13.3283 5.57251ZM8.70045 6.25789C9.26375 6.25789 9.81441 6.41874 10.2828 6.72011C10.7511 7.02147 11.1162 7.44981 11.3318 7.95096C11.5473 8.45211 11.6037 9.00356 11.4938 9.53558C11.3839 10.0676 11.1127 10.5563 10.7144 10.9399C10.3161 11.3234 9.80857 11.5846 9.25609 11.6904C8.70361 11.7963 8.13095 11.742 7.61052 11.5344C7.0901 11.3268 6.64528 10.9753 6.33233 10.5242C6.01937 10.0732 5.85234 9.54296 5.85234 9.00052C5.85314 8.27337 6.15347 7.57622 6.68742 7.06205C7.22137 6.54787 7.94533 6.25867 8.70045 6.25789ZM8.70045 4.88676C7.85553 4.88676 7.02959 5.12802 6.32706 5.58005C5.62454 6.03208 5.07699 6.67456 4.75365 7.42625C4.43032 8.17794 4.34572 9.00508 4.51055 9.80307C4.67539 10.6011 5.08226 11.3341 5.6797 11.9094C6.27715 12.4847 7.03834 12.8765 7.86703 13.0352C8.69571 13.194 9.55466 13.1125 10.3353 12.8011C11.1159 12.4898 11.7831 11.9625 12.2525 11.286C12.7219 10.6095 12.9724 9.81414 12.9724 9.00052C12.9724 7.90948 12.5223 6.86313 11.7212 6.09165C10.92 5.32017 9.83345 4.88676 8.70045 4.88676Z" fill="white"/>
</svg>
