<svg width="47" height="47" viewBox="0 0 47 47" fill="none" xmlns="http://www.w3.org/2000/svg">
<path d="M31.0275 44.5968H14.6208C11.6308 44.5968 9.21582 42.1818 9.21582 39.1918V12.499" stroke="white" stroke-width="3.08571" stroke-miterlimit="10"/>
<path d="M5.57422 2.27734H33.302C36.2026 2.27734 38.5664 4.62845 38.5664 7.54179V19.3868" stroke="white" stroke-width="3.08571" stroke-miterlimit="10"/>
<path d="M9.20339 11.5796H2.27783V5.74012C2.27783 3.82345 3.82394 2.27734 5.74061 2.27734C7.65728 2.27734 9.20339 3.82345 9.20339 5.74012V11.5796Z" stroke="white" stroke-width="3.08571" stroke-miterlimit="10"/>
<path d="M44.8534 29.1108L43.2945 31.4364L42.7451 34.1836L39.9979 34.733L37.6723 36.2919L35.3468 34.733L32.5995 34.1836L32.0501 31.4364L30.4912 29.1108L32.0501 26.7852L32.5995 24.038L35.3468 23.4886L37.6723 21.9297L39.9979 23.4886L42.7451 24.038L43.2945 26.7852L44.8534 29.1108Z" stroke="white" stroke-width="3.08571" stroke-miterlimit="10"/>
<path d="M41.6468 34.0303V43.5881L37.6857 40.9303L33.7246 43.5881V34.0303" stroke="white" stroke-width="3.08571" stroke-miterlimit="10"/>
<path d="M16.4233 10.2637H29.4695" stroke="white" stroke-width="3.08571" stroke-miterlimit="10"/>
<path d="M16.4233 16.9717H29.4695" stroke="white" stroke-width="3.08571" stroke-miterlimit="10"/>
<path d="M16.4233 23.6025H29.4695" stroke="white" stroke-width="3.08571" stroke-miterlimit="10"/>
<path d="M16.4233 30.0938H25.0739" stroke="white" stroke-width="3.08571" stroke-miterlimit="10"/>
<path d="M16.4233 36.7256H25.0739" stroke="white" stroke-width="3.08571" stroke-miterlimit="10"/>
</svg>
