<svg width="43" height="43" viewBox="0 0 43 43" fill="none" xmlns="http://www.w3.org/2000/svg">
<path d="M21.5005 30.2344C25.2112 30.2344 28.2192 27.2263 28.2192 23.5156C28.2192 19.805 25.2112 16.7969 21.5005 16.7969C17.7898 16.7969 14.7817 19.805 14.7817 23.5156C14.7817 27.2263 17.7898 30.2344 21.5005 30.2344Z" stroke="#6B78E5" stroke-width="2" stroke-linecap="round" stroke-linejoin="round"/>
<path d="M32.9224 19.4844C34.4874 19.4818 36.0314 19.8449 37.4312 20.5448C38.831 21.2447 40.0479 22.262 40.9849 23.5156" stroke="#6B78E5" stroke-width="2" stroke-linecap="round" stroke-linejoin="round"/>
<path d="M2.01611 23.5156C2.95304 22.262 4.16994 21.2447 5.56976 20.5448C6.96957 19.8449 8.51357 19.4818 10.0786 19.4844" stroke="#6B78E5" stroke-width="2" stroke-linecap="round" stroke-linejoin="round"/>
<path d="M11.8254 36.2813C12.7103 34.4691 14.0864 32.9418 15.797 31.8735C17.5075 30.8052 19.4837 30.2388 21.5004 30.2388C23.5172 30.2388 25.4934 30.8052 27.2039 31.8735C28.9144 32.9418 30.2905 34.4691 31.1754 36.2813" stroke="#6B78E5" stroke-width="2" stroke-linecap="round" stroke-linejoin="round"/>
<path d="M10.0787 19.4844C9.05853 19.4854 8.05913 19.1961 7.19727 18.6502C6.33542 18.1044 5.64671 17.3245 5.21161 16.4018C4.77651 15.4791 4.613 14.4515 4.74017 13.4393C4.86735 12.4271 5.27996 11.472 5.92979 10.6856C6.57963 9.89915 7.43985 9.3139 8.40995 8.99821C9.38004 8.68251 10.42 8.64941 11.4082 8.90278C12.3964 9.15615 13.2921 9.68551 13.9906 10.429C14.6891 11.1725 15.1616 12.0995 15.3529 13.1016" stroke="#6B78E5" stroke-width="2" stroke-linecap="round" stroke-linejoin="round"/>
<path d="M27.6482 13.1016C27.8395 12.0995 28.312 11.1725 29.0105 10.429C29.709 9.68551 30.6047 9.15615 31.5929 8.90278C32.5812 8.64941 33.6211 8.68251 34.5912 8.99821C35.5613 9.3139 36.4215 9.89915 37.0713 10.6856C37.7212 11.472 38.1338 12.4271 38.2609 13.4393C38.3881 14.4515 38.2246 15.4791 37.7895 16.4018C37.3544 17.3245 36.6657 18.1044 35.8038 18.6502C34.942 19.1961 33.9426 19.4854 32.9224 19.4844" stroke="#6B78E5" stroke-width="2" stroke-linecap="round" stroke-linejoin="round"/>
</svg>
