<svg width="29" height="28" viewBox="0 0 29 28" fill="none" xmlns="http://www.w3.org/2000/svg">
<path d="M27.0061 21.3734C26.0136 20.3734 23.6098 18.9141 22.4435 18.326C20.9247 17.5611 20.7997 17.4986 19.6059 18.3854C18.8096 18.9772 18.2803 19.506 17.3484 19.3072C16.4165 19.1085 14.3914 17.9879 12.6182 16.2205C10.8451 14.4531 9.65943 12.3694 9.46005 11.4407C9.26067 10.512 9.79818 9.98888 10.3844 9.19079C11.2107 8.06584 11.1482 7.87835 10.4419 6.35966C9.89131 5.17846 8.38939 2.79732 7.38562 1.80986C6.31184 0.74928 6.31184 0.936772 5.61995 1.22426C5.05667 1.46124 4.51628 1.74931 4.00554 2.08485C3.00551 2.74919 2.4505 3.30104 2.06237 4.13038C1.67423 4.95972 1.49985 6.90402 3.50428 10.5451C5.5087 14.1862 6.91498 16.048 9.82568 18.9504C12.7364 21.8527 14.9746 23.4133 18.2465 25.2482C22.2941 27.515 23.8466 27.0731 24.6785 26.6857C25.5104 26.2982 26.0648 25.7482 26.7305 24.7482C27.0669 24.2384 27.3556 23.6986 27.593 23.1358C27.8811 22.4465 28.0686 22.4465 27.0061 21.3734Z" stroke="#40DDB6" stroke-width="2" stroke-miterlimit="10"/>
</svg>
