<svg width="18" height="18" viewBox="0 0 18 18" fill="none" xmlns="http://www.w3.org/2000/svg">
<path d="M9.32239 0.320312C4.52818 0.320312 0.640869 4.20588 0.640869 8.99796C0.640869 12.5504 2.78024 15.603 5.83815 16.9473C5.8149 16.343 5.83428 15.6147 5.98931 14.9561C6.15596 14.251 7.1055 10.226 7.1055 10.226C7.1055 10.226 6.82645 9.67203 6.82645 8.85462C6.82645 7.56847 7.57058 6.60773 8.50075 6.60773C9.29139 6.60773 9.6712 7.20045 9.6712 7.90938C9.6712 8.70354 9.16349 9.88897 8.90382 10.9892C8.68678 11.9112 9.36502 12.6588 10.2758 12.6588C11.9191 12.6588 13.0275 10.5475 13.0275 8.04497C13.0275 6.14286 11.7447 4.72112 9.41541 4.72112C6.78382 4.72112 5.14053 6.68521 5.14053 8.87787C5.14053 9.63329 5.36532 10.1679 5.71413 10.5785C5.87304 10.7684 5.89629 10.8458 5.83815 11.0628C5.79552 11.2216 5.70251 11.6051 5.65987 11.7601C5.60174 11.9809 5.42346 12.0584 5.2258 11.977C4.01271 11.4812 3.44686 10.1563 3.44686 8.66093C3.44686 6.19709 5.5281 3.24127 9.65182 3.24127C12.9655 3.24127 15.1475 5.63925 15.1475 8.21155C15.1475 11.6168 13.2523 14.1581 10.4618 14.1581C9.52393 14.1581 8.64415 13.6506 8.34184 13.0772C8.34184 13.0772 7.83801 15.0762 7.72949 15.4636C7.54733 16.1338 7.18689 16.8001 6.85746 17.3231C7.65658 17.5587 8.48535 17.6787 9.31852 17.6795C14.1127 17.6795 18 13.7939 18 9.00183C18 4.20976 14.1166 0.320312 9.32239 0.320312Z" fill="white"/>
</svg>
