<svg width="62" height="62" viewBox="0 0 62 62" fill="none" xmlns="http://www.w3.org/2000/svg">
<path d="M52.0829 52.083H9.91626" stroke="white" stroke-width="3.08571" stroke-linecap="round" stroke-linejoin="round"/>
<path d="M34.833 19.5003V42.5003C34.833 43.5589 35.6911 44.417 36.7497 44.417H46.333C47.3916 44.417 48.2497 43.5589 48.2497 42.5003V19.5003C48.2497 18.4418 47.3916 17.5837 46.333 17.5837H36.7497C35.6911 17.5837 34.833 18.4418 34.833 19.5003Z" stroke="white" stroke-width="3.08571" stroke-linecap="round" stroke-linejoin="round"/>
<path d="M25.2498 8H15.6664C14.6079 8 13.7498 8.85812 13.7498 9.91667V42.5C13.7498 43.5585 14.6079 44.4167 15.6664 44.4167H25.2498C26.3083 44.4167 27.1664 43.5585 27.1664 42.5V9.91667C27.1664 8.85812 26.3083 8 25.2498 8Z" stroke="white" stroke-width="3.08571" stroke-linecap="round" stroke-linejoin="round"/>
</svg>
