<svg width="43" height="44" viewBox="0 0 43 44" fill="none" xmlns="http://www.w3.org/2000/svg">
<path d="M36.2815 12.5938H6.71899C5.97686 12.5938 5.37524 13.1954 5.37524 13.9375V35.4375C5.37524 36.1796 5.97686 36.7812 6.71899 36.7812H36.2815C37.0236 36.7812 37.6252 36.1796 37.6252 35.4375V13.9375C37.6252 13.1954 37.0236 12.5938 36.2815 12.5938Z" stroke="#6B78E5" stroke-width="2" stroke-linecap="round" stroke-linejoin="round"/>
<path d="M28.219 36.7812V9.90625C28.219 9.19348 27.9358 8.5099 27.4318 8.0059C26.9278 7.5019 26.2443 7.21875 25.5315 7.21875H17.469C16.7562 7.21875 16.0726 7.5019 15.5686 8.0059C15.0646 8.5099 14.7815 9.19348 14.7815 9.90625V36.7812" stroke="#6B78E5" stroke-width="2" stroke-linecap="round" stroke-linejoin="round"/>
</svg>
