<svg width="19" height="16" viewBox="0 0 19 16" fill="none" xmlns="http://www.w3.org/2000/svg">
<path d="M18.6408 2.41226C17.954 2.71067 17.2274 2.90727 16.4838 2.99584C17.2652 2.53827 17.8529 1.81134 18.1365 0.951392C17.3977 1.38339 16.5908 1.6865 15.7503 1.84774C15.3964 1.47682 14.9707 1.18174 14.4992 0.980435C14.0277 0.779134 13.5202 0.675817 13.0075 0.676764C10.9318 0.676764 9.25195 2.33216 9.25195 4.37279C9.25047 4.65664 9.283 4.93964 9.34883 5.21574C7.86038 5.14597 6.40289 4.76626 5.06959 4.10093C3.7363 3.4356 2.55656 2.49928 1.60586 1.35189C1.27233 1.91416 1.09594 2.55569 1.09513 3.20944C1.09513 4.49103 1.76377 5.62387 2.77341 6.28756C2.17523 6.27336 1.5893 6.11504 1.06538 5.82603V5.8718C1.06538 7.66451 2.36223 9.15589 4.07865 9.49536C3.75588 9.5814 3.42327 9.62499 3.08923 9.62504C2.8522 9.62545 2.61571 9.60246 2.38321 9.55638C2.86037 11.0249 4.24915 12.0929 5.89424 12.1234C4.55749 13.1536 2.9163 13.7104 1.22863 13.7063C0.929063 13.7059 0.629775 13.688 0.332275 13.6529C2.04915 14.7492 4.04487 15.3291 6.08191 15.3236C12.9995 15.3236 16.7786 9.68988 16.7786 4.8038C16.7786 4.6436 16.7744 4.48341 16.7668 4.32702C17.5003 3.80525 18.1349 3.15684 18.6408 2.41226Z" fill="white"/>
</svg>
